<svg width="196" height="51" viewBox="0 0 196 51" fill="none" xmlns="http://www.w3.org/2000/svg">
<g clip-path="url(#clip0_0_1)">
<path d="M114.764 40.432C112.604 40.432 110.768 40.048 109.256 39.28C107.768 38.512 106.484 37.504 105.404 36.256L108.608 33.16C109.472 34.168 110.432 34.936 111.488 35.464C112.568 35.992 113.756 36.256 115.052 36.256C116.516 36.256 117.62 35.944 118.364 35.32C119.108 34.672 119.48 33.808 119.48 32.728C119.48 31.888 119.24 31.204 118.76 30.676C118.28 30.148 117.38 29.764 116.06 29.524L113.684 29.164C108.668 28.372 106.16 25.936 106.16 21.856C106.16 20.728 106.364 19.708 106.772 18.796C107.204 17.884 107.816 17.104 108.608 16.456C109.4 15.808 110.348 15.316 111.452 14.98C112.58 14.62 113.852 14.44 115.268 14.44C117.164 14.44 118.82 14.752 120.236 15.376C121.652 16 122.864 16.924 123.872 18.148L120.632 21.208C120.008 20.44 119.252 19.816 118.364 19.336C117.476 18.856 116.36 18.616 115.016 18.616C113.648 18.616 112.616 18.88 111.92 19.408C111.248 19.912 110.912 20.632 110.912 21.568C110.912 22.528 111.188 23.236 111.74 23.692C112.292 24.148 113.18 24.484 114.404 24.7L116.744 25.132C119.288 25.588 121.16 26.404 122.36 27.58C123.584 28.732 124.196 30.352 124.196 32.44C124.196 33.64 123.98 34.732 123.548 35.716C123.14 36.676 122.528 37.516 121.712 38.236C120.92 38.932 119.936 39.472 118.76 39.856C117.608 40.24 116.276 40.432 114.764 40.432ZM134.399 40C132.815 40 131.603 39.592 130.763 38.776C129.947 37.936 129.539 36.748 129.539 35.212V24.88H126.767V21.208H128.207C128.903 21.208 129.371 21.052 129.611 20.74C129.875 20.404 130.007 19.912 130.007 19.264V16.06H134.147V21.208H137.999V24.88H134.147V36.328H137.711V40H134.399ZM149.307 40.432C147.963 40.432 146.751 40.204 145.671 39.748C144.615 39.292 143.703 38.632 142.935 37.768C142.191 36.904 141.615 35.872 141.207 34.672C140.799 33.448 140.595 32.08 140.595 30.568C140.595 29.056 140.799 27.7 141.207 26.5C141.615 25.3 142.191 24.28 142.935 23.44C143.703 22.576 144.615 21.916 145.671 21.46C146.751 21.004 147.963 20.776 149.307 20.776C150.651 20.776 151.863 21.004 152.943 21.46C154.023 21.916 154.935 22.576 155.679 23.44C156.447 24.28 157.035 25.3 157.443 26.5C157.851 27.7 158.055 29.056 158.055 30.568C158.055 32.08 157.851 33.448 157.443 34.672C157.035 35.872 156.447 36.904 155.679 37.768C154.935 38.632 154.023 39.292 152.943 39.748C151.863 40.204 150.651 40.432 149.307 40.432ZM149.307 36.724C150.531 36.724 151.491 36.352 152.187 35.608C152.883 34.864 153.231 33.772 153.231 32.332V28.84C153.231 27.424 152.883 26.344 152.187 25.6C151.491 24.856 150.531 24.484 149.307 24.484C148.107 24.484 147.159 24.856 146.463 25.6C145.767 26.344 145.419 27.424 145.419 28.84V32.332C145.419 33.772 145.767 34.864 146.463 35.608C147.159 36.352 148.107 36.724 149.307 36.724ZM162.141 40V21.208H166.749V25.096H166.929C167.049 24.592 167.229 24.112 167.469 23.656C167.733 23.176 168.069 22.756 168.477 22.396C168.885 22.036 169.365 21.748 169.917 21.532C170.493 21.316 171.153 21.208 171.897 21.208H172.905V25.564H171.465C169.905 25.564 168.729 25.792 167.937 26.248C167.145 26.704 166.749 27.448 166.749 28.48V40H162.141ZM183.694 40.432C182.302 40.432 181.054 40.204 179.95 39.748C178.87 39.268 177.946 38.608 177.178 37.768C176.434 36.904 175.858 35.872 175.45 34.672C175.042 33.448 174.838 32.08 174.838 30.568C174.838 29.08 175.03 27.736 175.414 26.536C175.822 25.336 176.398 24.316 177.142 23.476C177.886 22.612 178.798 21.952 179.878 21.496C180.958 21.016 182.182 20.776 183.55 20.776C185.014 20.776 186.286 21.028 187.366 21.532C188.446 22.036 189.334 22.72 190.03 23.584C190.726 24.448 191.242 25.456 191.578 26.608C191.938 27.736 192.118 28.948 192.118 30.244V31.756H179.626V32.224C179.626 33.592 180.01 34.696 180.778 35.536C181.546 36.352 182.686 36.76 184.198 36.76C185.35 36.76 186.286 36.52 187.006 36.04C187.75 35.56 188.41 34.948 188.986 34.204L191.47 36.976C190.702 38.056 189.646 38.908 188.302 39.532C186.982 40.132 185.446 40.432 183.694 40.432ZM183.622 24.232C182.398 24.232 181.426 24.64 180.706 25.456C179.986 26.272 179.626 27.328 179.626 28.624V28.912H187.33V28.588C187.33 27.292 187.006 26.248 186.358 25.456C185.734 24.64 184.822 24.232 183.622 24.232Z" fill="#1890FF"/>
<path d="M0 0H104V51H0V0Z" fill="#1890FF"/>
<path d="M22.504 39L20.488 32.592H11.56L9.58 39H4.756L13.18 13.872H19.084L27.436 39H22.504ZM16.096 18.192H15.916L12.712 28.524H19.336L16.096 18.192ZM38.9875 39.432C37.5955 39.432 36.3475 39.204 35.2435 38.748C34.1635 38.268 33.2395 37.608 32.4715 36.768C31.7275 35.904 31.1515 34.872 30.7435 33.672C30.3355 32.448 30.1315 31.08 30.1315 29.568C30.1315 28.08 30.3235 26.736 30.7075 25.536C31.1155 24.336 31.6915 23.316 32.4355 22.476C33.1795 21.612 34.0915 20.952 35.1715 20.496C36.2515 20.016 37.4755 19.776 38.8435 19.776C40.3075 19.776 41.5795 20.028 42.6595 20.532C43.7395 21.036 44.6275 21.72 45.3235 22.584C46.0195 23.448 46.5355 24.456 46.8715 25.608C47.2315 26.736 47.4115 27.948 47.4115 29.244V30.756H34.9195V31.224C34.9195 32.592 35.3035 33.696 36.0715 34.536C36.8395 35.352 37.9795 35.76 39.4915 35.76C40.6435 35.76 41.5795 35.52 42.2995 35.04C43.0435 34.56 43.7035 33.948 44.2795 33.204L46.7635 35.976C45.9955 37.056 44.9395 37.908 43.5955 38.532C42.2755 39.132 40.7395 39.432 38.9875 39.432ZM38.9155 23.232C37.6915 23.232 36.7195 23.64 35.9995 24.456C35.2795 25.272 34.9195 26.328 34.9195 27.624V27.912H42.6235V27.588C42.6235 26.292 42.2995 25.248 41.6515 24.456C41.0275 23.64 40.1155 23.232 38.9155 23.232ZM68.9617 40.584C68.9617 41.568 68.7817 42.432 68.4217 43.176C68.0857 43.944 67.5217 44.58 66.7297 45.084C65.9377 45.588 64.9177 45.972 63.6697 46.236C62.4217 46.5 60.8977 46.632 59.0977 46.632C57.5137 46.632 56.1697 46.524 55.0657 46.308C53.9617 46.116 53.0497 45.828 52.3297 45.444C51.6337 45.084 51.1297 44.628 50.8177 44.076C50.5057 43.524 50.3497 42.9 50.3497 42.204C50.3497 41.148 50.6377 40.32 51.2137 39.72C51.8137 39.144 52.6417 38.772 53.6977 38.604V38.208C52.9297 38.016 52.3297 37.644 51.8977 37.092C51.4897 36.516 51.2857 35.844 51.2857 35.076C51.2857 34.596 51.3817 34.176 51.5737 33.816C51.7657 33.432 52.0177 33.108 52.3297 32.844C52.6657 32.58 53.0377 32.364 53.4457 32.196C53.8537 32.004 54.2857 31.86 54.7417 31.764V31.62C53.5897 31.092 52.7257 30.36 52.1497 29.424C51.5977 28.488 51.3217 27.396 51.3217 26.148C51.3217 24.228 51.9817 22.692 53.3017 21.54C54.6217 20.364 56.5537 19.776 59.0977 19.776C59.6737 19.776 60.2377 19.812 60.7897 19.884C61.3657 19.956 61.8937 20.076 62.3737 20.244V19.632C62.3737 17.808 63.2617 16.896 65.0377 16.896H67.9537V20.424H63.9577V20.928C64.9417 21.48 65.6737 22.2 66.1537 23.088C66.6337 23.976 66.8737 24.996 66.8737 26.148C66.8737 28.044 66.2137 29.568 64.8937 30.72C63.5977 31.872 61.6657 32.448 59.0977 32.448C57.9937 32.448 57.0337 32.34 56.2177 32.124C55.8577 32.292 55.5457 32.52 55.2817 32.808C55.0177 33.072 54.8857 33.408 54.8857 33.816C54.8857 34.752 55.7017 35.22 57.3337 35.22H62.3737C64.6777 35.22 66.3457 35.7 67.3777 36.66C68.4337 37.596 68.9617 38.904 68.9617 40.584ZM64.6417 41.124C64.6417 40.524 64.4017 40.056 63.9217 39.72C63.4417 39.384 62.6137 39.216 61.4377 39.216H55.0297C54.3817 39.696 54.0577 40.344 54.0577 41.16C54.0577 41.88 54.3577 42.444 54.9577 42.852C55.5577 43.26 56.5777 43.464 58.0177 43.464H60.3217C61.8337 43.464 62.9257 43.272 63.5977 42.888C64.2937 42.504 64.6417 41.916 64.6417 41.124ZM59.0977 29.316C61.3537 29.316 62.4817 28.356 62.4817 26.436V25.824C62.4817 23.904 61.3537 22.944 59.0977 22.944C56.8417 22.944 55.7137 23.904 55.7137 25.824V26.436C55.7137 28.356 56.8417 29.316 59.0977 29.316ZM74.4669 17.472C73.5069 17.472 72.8109 17.256 72.3789 16.824C71.9709 16.392 71.7669 15.84 71.7669 15.168V14.448C71.7669 13.776 71.9709 13.224 72.3789 12.792C72.8109 12.36 73.5069 12.144 74.4669 12.144C75.4029 12.144 76.0869 12.36 76.5189 12.792C76.9509 13.224 77.1669 13.776 77.1669 14.448V15.168C77.1669 15.84 76.9509 16.392 76.5189 16.824C76.0869 17.256 75.4029 17.472 74.4669 17.472ZM72.1629 20.208H76.7709V39H72.1629V20.208ZM88.8081 39.432C87.0081 39.432 85.4961 39.132 84.2721 38.532C83.0481 37.908 81.9681 37.056 81.0321 35.976L83.8401 33.24C84.5361 34.032 85.2921 34.656 86.1081 35.112C86.9481 35.568 87.9081 35.796 88.9881 35.796C90.0921 35.796 90.8841 35.604 91.3641 35.22C91.8681 34.836 92.1201 34.308 92.1201 33.636C92.1201 33.084 91.9401 32.652 91.5801 32.34C91.2441 32.004 90.6561 31.776 89.8161 31.656L87.9441 31.404C85.9041 31.14 84.3441 30.564 83.2641 29.676C82.2081 28.764 81.6801 27.444 81.6801 25.716C81.6801 24.804 81.8481 23.988 82.1841 23.268C82.5201 22.524 83.0001 21.9 83.6241 21.396C84.2481 20.868 84.9921 20.472 85.8561 20.208C86.7441 19.92 87.7281 19.776 88.8081 19.776C89.7201 19.776 90.5241 19.848 91.2201 19.992C91.9401 20.112 92.5881 20.304 93.1641 20.568C93.7401 20.808 94.2681 21.12 94.7481 21.504C95.2281 21.864 95.6961 22.272 96.1521 22.728L93.4521 25.428C92.9001 24.852 92.2401 24.372 91.4721 23.988C90.7041 23.604 89.8641 23.412 88.9521 23.412C87.9441 23.412 87.2121 23.592 86.7561 23.952C86.3241 24.312 86.1081 24.78 86.1081 25.356C86.1081 25.98 86.2881 26.46 86.6481 26.796C87.0321 27.108 87.6681 27.336 88.5561 27.48L90.4641 27.732C94.5201 28.308 96.5481 30.156 96.5481 33.276C96.5481 34.188 96.3561 35.028 95.9721 35.796C95.6121 36.54 95.0961 37.188 94.4241 37.74C93.7521 38.268 92.9361 38.688 91.9761 39C91.0401 39.288 89.9841 39.432 88.8081 39.432Z" fill="white"/>
</g>
<defs>
<clipPath id="clip0_0_1">
<rect width="196" height="51" fill="white"/>
</clipPath>
</defs>
</svg>
