<svg width="309" height="70" viewBox="0 0 309 70" fill="none" xmlns="http://www.w3.org/2000/svg">
<g clip-path="url(#clip0_0_1)">
<path d="M186.5 50.35C184.067 50.35 181.867 49.9333 179.9 49.1C177.967 48.2667 176.433 47.0667 175.3 45.5C174.167 43.9333 173.583 42.0833 173.55 39.95H181.05C181.15 41.3833 181.65 42.5167 182.55 43.35C183.483 44.1833 184.75 44.6 186.35 44.6C187.983 44.6 189.267 44.2167 190.2 43.45C191.133 42.65 191.6 41.6167 191.6 40.35C191.6 39.3167 191.283 38.4667 190.65 37.8C190.017 37.1333 189.217 36.6167 188.25 36.25C187.317 35.85 186.017 35.4167 184.35 34.95C182.083 34.2833 180.233 33.6333 178.8 33C177.4 32.3333 176.183 31.35 175.15 30.05C174.15 28.7167 173.65 26.95 173.65 24.75C173.65 22.6833 174.167 20.8833 175.2 19.35C176.233 17.8167 177.683 16.65 179.55 15.85C181.417 15.0167 183.55 14.6 185.95 14.6C189.55 14.6 192.467 15.4833 194.7 17.25C196.967 18.9833 198.217 21.4167 198.45 24.55H190.75C190.683 23.35 190.167 22.3667 189.2 21.6C188.267 20.8 187.017 20.4 185.45 20.4C184.083 20.4 182.983 20.75 182.15 21.45C181.35 22.15 180.95 23.1667 180.95 24.5C180.95 25.4333 181.25 26.2167 181.85 26.85C182.483 27.45 183.25 27.95 184.15 28.35C185.083 28.7167 186.383 29.15 188.05 29.65C190.317 30.3167 192.167 30.9833 193.6 31.65C195.033 32.3167 196.267 33.3167 197.3 34.65C198.333 35.9833 198.85 37.7333 198.85 39.9C198.85 41.7667 198.367 43.5 197.4 45.1C196.433 46.7 195.017 47.9833 193.15 48.95C191.283 49.8833 189.067 50.35 186.5 50.35ZM213.069 28.05V41.45C213.069 42.3833 213.285 43.0667 213.719 43.5C214.185 43.9 214.952 44.1 216.019 44.1H219.269V50H214.869C208.969 50 206.019 47.1333 206.019 41.4V28.05H202.719V22.3H206.019V15.45H213.069V22.3H219.269V28.05H213.069ZM236.604 50.45C233.937 50.45 231.537 49.8667 229.404 48.7C227.27 47.5 225.587 45.8167 224.354 43.65C223.154 41.4833 222.554 38.9833 222.554 36.15C222.554 33.3167 223.17 30.8167 224.404 28.65C225.67 26.4833 227.387 24.8167 229.554 23.65C231.72 22.45 234.137 21.85 236.804 21.85C239.47 21.85 241.887 22.45 244.054 23.65C246.22 24.8167 247.92 26.4833 249.154 28.65C250.42 30.8167 251.054 33.3167 251.054 36.15C251.054 38.9833 250.404 41.4833 249.104 43.65C247.837 45.8167 246.104 47.5 243.904 48.7C241.737 49.8667 239.304 50.45 236.604 50.45ZM236.604 44.35C237.87 44.35 239.054 44.05 240.154 43.45C241.287 42.8167 242.187 41.8833 242.854 40.65C243.52 39.4167 243.854 37.9167 243.854 36.15C243.854 33.5167 243.154 31.5 241.754 30.1C240.387 28.6667 238.704 27.95 236.704 27.95C234.704 27.95 233.02 28.6667 231.654 30.1C230.32 31.5 229.654 33.5167 229.654 36.15C229.654 38.7833 230.304 40.8167 231.604 42.25C232.937 43.65 234.604 44.35 236.604 44.35ZM263.188 26.6C264.088 25.1333 265.255 23.9833 266.688 23.15C268.155 22.3167 269.822 21.9 271.688 21.9V29.25H269.838C267.638 29.25 265.972 29.7667 264.838 30.8C263.738 31.8333 263.188 33.6333 263.188 36.2V50H256.188V22.3H263.188V26.6ZM302.153 35.55C302.153 36.55 302.086 37.45 301.953 38.25L281.703 38.25C281.87 40.25 282.57 41.8167 283.803 42.95C285.036 44.0833 286.553 44.65 288.353 44.65C290.953 44.65 292.803 43.5333 293.903 41.3L301.453 41.3C300.653 43.9667 299.12 46.1667 296.853 47.9C294.586 49.6 291.803 50.45 288.503 50.45C285.836 50.45 283.436 49.8667 281.303 48.7C279.203 47.5 277.553 45.8167 276.353 43.65C275.186 41.4833 274.603 38.9833 274.603 36.15C274.603 33.2833 275.186 30.7667 276.353 28.6C277.52 26.4333 279.153 24.7667 281.253 23.6C283.353 22.4333 285.77 21.85 288.503 21.85C291.136 21.85 293.486 22.4167 295.553 23.55C297.653 24.6833 299.27 26.3 300.403 28.4C301.57 30.4667 302.153 32.85 302.153 35.55ZM294.903 33.55C294.87 31.75 294.22 30.3167 292.953 29.25C291.686 28.15 290.136 27.6 288.303 27.6C286.57 27.6 285.103 28.1333 283.903 29.2C282.736 30.2333 282.02 31.6833 281.753 33.55H294.903Z" fill="#1890FF"/>
<path d="M0 0H168V70H0V0Z" fill="#1890FF"/>
<path d="M37.85 43.35H23.95L21.65 50H14.3L26.85 15.05H35L47.55 50H40.15L37.85 43.35ZM35.95 37.75L30.9 23.15L25.85 37.75H35.95ZM78.741 35.55C78.741 36.55 78.6744 37.45 78.541 38.25H58.291C58.4577 40.25 59.1577 41.8167 60.391 42.95C61.6243 44.0833 63.141 44.65 64.941 44.65C67.541 44.65 69.391 43.5333 70.491 41.3H78.041C77.241 43.9667 75.7077 46.1667 73.441 47.9C71.1744 49.6 68.391 50.45 65.091 50.45C62.4243 50.45 60.0243 49.8667 57.891 48.7C55.791 47.5 54.141 45.8167 52.941 43.65C51.7743 41.4833 51.191 38.9833 51.191 36.15C51.191 33.2833 51.7743 30.7667 52.941 28.6C54.1077 26.4333 55.741 24.7667 57.841 23.6C59.941 22.4333 62.3577 21.85 65.091 21.85C67.7243 21.85 70.0743 22.4167 72.141 23.55C74.241 24.6833 75.8577 26.3 76.991 28.4C78.1577 30.4667 78.741 32.85 78.741 35.55ZM71.491 33.55C71.4577 31.75 70.8077 30.3167 69.541 29.25C68.2743 28.15 66.7243 27.6 64.891 27.6C63.1577 27.6 61.691 28.1333 60.491 29.2C59.3243 30.2333 58.6077 31.6833 58.341 33.55H71.491ZM95.4504 21.85C97.5171 21.85 99.3337 22.2667 100.9 23.1C102.467 23.9 103.7 24.95 104.6 26.25V22.3H111.65V50.2C111.65 52.7667 111.134 55.05 110.1 57.05C109.067 59.0833 107.517 60.6833 105.45 61.85C103.384 63.05 100.884 63.65 97.9504 63.65C94.0171 63.65 90.7837 62.7333 88.2504 60.9C85.7504 59.0667 84.3337 56.5667 84.0004 53.4H90.9504C91.3171 54.6667 92.1004 55.6667 93.3004 56.4C94.5337 57.1667 96.0171 57.55 97.7504 57.55C99.7837 57.55 101.434 56.9333 102.7 55.7C103.967 54.5 104.6 52.6667 104.6 50.2V45.9C103.7 47.2 102.45 48.2833 100.85 49.15C99.2837 50.0167 97.4837 50.45 95.4504 50.45C93.1171 50.45 90.9837 49.85 89.0504 48.65C87.1171 47.45 85.5837 45.7667 84.4504 43.6C83.3504 41.4 82.8004 38.8833 82.8004 36.05C82.8004 33.25 83.3504 30.7667 84.4504 28.6C85.5837 26.4333 87.1004 24.7667 89.0004 23.6C90.9337 22.4333 93.0837 21.85 95.4504 21.85ZM104.6 36.15C104.6 34.45 104.267 33 103.6 31.8C102.934 30.5667 102.034 29.6333 100.9 29C99.7671 28.3333 98.5504 28 97.2504 28C95.9504 28 94.7504 28.3167 93.6504 28.95C92.5504 29.5833 91.6504 30.5167 90.9504 31.75C90.2837 32.95 89.9504 34.3833 89.9504 36.05C89.9504 37.7167 90.2837 39.1833 90.9504 40.45C91.6504 41.6833 92.5504 42.6333 93.6504 43.3C94.7837 43.9667 95.9837 44.3 97.2504 44.3C98.5504 44.3 99.7671 43.9833 100.9 43.35C102.034 42.6833 102.934 41.75 103.6 40.55C104.267 39.3167 104.6 37.85 104.6 36.15ZM122.787 19C121.554 19 120.52 18.6167 119.687 17.85C118.887 17.05 118.487 16.0667 118.487 14.9C118.487 13.7333 118.887 12.7667 119.687 12C120.52 11.2 121.554 10.8 122.787 10.8C124.02 10.8 125.037 11.2 125.837 12C126.67 12.7667 127.087 13.7333 127.087 14.9C127.087 16.0667 126.67 17.05 125.837 17.85C125.037 18.6167 124.02 19 122.787 19ZM126.237 22.3V50H119.237V22.3H126.237ZM144.503 50.45C142.236 50.45 140.203 50.05 138.403 49.25C136.603 48.4167 135.17 47.3 134.103 45.9C133.07 44.5 132.503 42.95 132.403 41.25H139.453C139.586 42.3167 140.103 43.2 141.003 43.9C141.936 44.6 143.086 44.95 144.453 44.95C145.786 44.95 146.82 44.6833 147.553 44.15C148.32 43.6167 148.703 42.9333 148.703 42.1C148.703 41.2 148.236 40.5333 147.303 40.1C146.403 39.6333 144.953 39.1333 142.953 38.6C140.886 38.1 139.186 37.5833 137.853 37.05C136.553 36.5167 135.42 35.7 134.453 34.6C133.52 33.5 133.053 32.0167 133.053 30.15C133.053 28.6167 133.486 27.2167 134.353 25.95C135.253 24.6833 136.52 23.6833 138.153 22.95C139.82 22.2167 141.77 21.85 144.003 21.85C147.303 21.85 149.936 22.6833 151.903 24.35C153.87 25.9833 154.953 28.2 155.153 31H148.453C148.353 29.9 147.886 29.0333 147.053 28.4C146.253 27.7333 145.17 27.4 143.803 27.4C142.536 27.4 141.553 27.6333 140.853 28.1C140.186 28.5667 139.853 29.2167 139.853 30.05C139.853 30.9833 140.32 31.7 141.253 32.2C142.186 32.6667 143.636 33.15 145.603 33.65C147.603 34.15 149.253 34.6667 150.553 35.2C151.853 35.7333 152.97 36.5667 153.903 37.7C154.87 38.8 155.37 40.2667 155.403 42.1C155.403 43.7 154.953 45.1333 154.053 46.4C153.186 47.6667 151.92 48.6667 150.253 49.4C148.62 50.1 146.703 50.45 144.503 50.45Z" fill="white"/>
</g>
<defs>
<clipPath id="clip0_0_1">
<rect width="309" height="70" fill="white"/>
</clipPath>
</defs>
</svg>
