<svg width="325" height="336" viewBox="0 0 325 336" fill="none" xmlns="http://www.w3.org/2000/svg">
<path d="M224.5 137.5C224.5 158.251 218.205 177.019 208.051 190.587C197.898 204.155 183.909 212.5 168.5 212.5C153.091 212.5 139.102 204.155 128.949 190.587C118.795 177.019 112.5 158.251 112.5 137.5C112.5 116.749 118.795 97.9813 128.949 84.413C139.102 70.8449 153.091 62.5 168.5 62.5C183.909 62.5 197.898 70.8449 208.051 84.413C218.205 97.9813 224.5 116.749 224.5 137.5Z" stroke="black"/>
<path d="M217.5 125.5C217.5 157.053 195.494 182.5 168.5 182.5C141.506 182.5 119.5 157.053 119.5 125.5C119.5 93.9469 141.506 68.5 168.5 68.5C195.494 68.5 217.5 93.9469 217.5 125.5Z" stroke="black"/>
<path d="M47 280L76 138H257L291 280H47Z" fill="#92C9F9"/>
<path d="M47 280L76 138H257L291 280H47Z" fill="url(#paint0_linear_0_1)" fill-opacity="0.2"/>
<defs>
<linearGradient id="paint0_linear_0_1" x1="79" y1="138" x2="291" y2="285" gradientUnits="userSpaceOnUse">
<stop offset="0.375" stop-color="#B87510"/>
<stop offset="1" stop-opacity="0"/>
</linearGradient>
</defs>
</svg>
